<svg xmlns="http://www.w3.org/2000/svg" xmlns:xlink="http://www.w3.org/1999/xlink" width="20" height="20" viewBox="0 0 20 20">
  <defs>
    <clipPath id="clip-path">
      <rect id="사각형_166241" data-name="사각형 166241" width="20" height="20" transform="translate(1430 55)" fill="#fff" stroke="#707070" stroke-width="1"/>
    </clipPath>
  </defs>
  <g id="ico_join" transform="translate(-1430 -55)" clip-path="url(#clip-path)">
    <g id="Combined_Shape" data-name="Combined Shape" transform="translate(1434 55)" fill="none">
      <path d="M-2,18V15.332C-2,12.387,1.582,10,6,10s8,2.389,8,5.334V18ZM3,5A3,3,0,1,1,6,8,3,3,0,0,1,3,5Z" stroke="none"/>
      <path d="M 12.50040054321289 16.5 L 12.50040054321289 15.33240032196045 C 12.50040054321289 14.10851955413818 11.45069026947021 13.22583961486816 10.82498073577881 12.80860996246338 C 9.575940132141113 11.97575950622559 7.817420482635498 11.49810028076172 6.000300407409668 11.49810028076172 C 4.183180332183838 11.49810028076172 2.424660444259644 11.97575950622559 1.175620436668396 12.80860996246338 C 0.5499104261398315 13.22583961486816 -0.4997995793819427 14.10851955413818 -0.4997995793819427 15.33240032196045 L -0.4997995793819427 16.5 L 12.50040054321289 16.5 M 6.000300407409668 6.500099658966064 C 6.827240467071533 6.500099658966064 7.500000476837158 5.827339649200439 7.500000476837158 5.000400066375732 C 7.500000476837158 4.172969818115234 6.827240467071533 3.499799966812134 6.000300407409668 3.499799966812134 C 5.172870635986328 3.499799966812134 4.499700546264648 4.172969818115234 4.499700546264648 5.000400066375732 C 4.499700546264648 5.827339649200439 5.172870635986328 6.500099658966064 6.000300407409668 6.500099658966064 M 14.00040054321289 18 L -1.999799609184265 18 L -1.999799609184265 15.33240032196045 C -1.999799609184265 12.38669967651367 1.582200407981873 9.998100280761719 6.000300407409668 9.998100280761719 C 10.41840076446533 9.998100280761719 14.00040054321289 12.38669967651367 14.00040054321289 15.33240032196045 L 14.00040054321289 18 Z M 6.000300407409668 8.000100135803223 C 4.343400478363037 8.000100135803223 2.999700307846069 6.657299995422363 2.999700307846069 5.000400066375732 C 2.999700307846069 3.342599868774414 4.343400478363037 1.999799847602844 6.000300407409668 1.999799847602844 C 7.65630054473877 1.999799847602844 9 3.342599868774414 9 5.000400066375732 C 9 6.657299995422363 7.65630054473877 8.000100135803223 6.000300407409668 8.000100135803223 Z" stroke="none" fill="#1d1d1d"/>
    </g>
  </g>
</svg>
